{
  "accessors": [
    {
      "bufferView": 2,
      "componentType": 5126,
      "count": 13936,
      "max": [
        1.7013700008392334,
        5.8086099624633789,
        2.5018401145935059
      ],
      "min": [
        -0.75578999519348145,
        0.063490003347396851,
        -2.2605600357055664
      ],
      "type": "VEC3"
    },
    {
      "bufferView": 2,
      "byteOffset": 167232,
      "componentType": 5126,
      "count": 13936,
      "max": [
        0.99989849328994751,
        0.99992024898529053,
        0.99998575448989868
      ],
      "min": [
        -0.99997848272323608,
        -0.99989229440689087,
        -0.99956810474395752
      ],
      "type": "VEC3"
    },
    {
      "bufferView": 3,
      "componentType": 5126,
      "count": 13936,
      "max": [
        0.99993777275085449,
        0.99984085559844971,
        0.99999254941940308,
        1
      ],
      "min": [
        -0.99999701976776123,
        -0.99991881847381592,
        -0.99983805418014526,
        -1
      ],
      "type": "VEC4"
    },
    {
      "bufferView": 2,
      "byteOffset": 334464,
      "componentType": 5126,
      "count": 13936,
      "max": [
        1,
        1,
        1
      ],
      "min": [
        1,
        1,
        1
      ],
      "type": "VEC3"
    },
    {
      "bufferView": 1,
      "componentType": 5126,
      "count": 13936,
      "max": [
        0.99247002601623535,
        0.99089998006820679
      ],
      "min": [
        0.0099299997091293335,
        0.0082599995657801628
      ],
      "type": "VEC2"
    },
    {
      "bufferView": 0,
      "componentType": 5125,
      "count": 74148,
      "max": [
        13935
      ],
      "min": [
        0
      ],
      "type": "SCALAR"
    },
    {
      "bufferView": 2,
      "byteOffset": 501696,
      "componentType": 5126,
      "count": 24190,
      "max": [
        1.7194499969482422,
        6.3106598854064941,
        2.5190699100494385
      ],
      "min": [
        -2.0896298885345459,
        0.044629998505115509,
        -2.2795200347900391
      ],
      "type": "VEC3"
    },
    {
      "bufferView": 2,
      "byteOffset": 791976,
      "componentType": 5126,
      "count": 24190,
      "max": [
        0.99994641542434692,
        0.99996453523635864,
        0.99985772371292114
      ],
      "min": [
        -0.99991786479949951,
        -0.99995929002761841,
        -0.99998897314071655
      ],
      "type": "VEC3"
    },
    {
      "bufferView": 3,
      "byteOffset": 222976,
      "componentType": 5126,
      "count": 24190,
      "max": [
        0.99993318319320679,
        0.99989110231399536,
        0.99995571374893188,
        1
      ],
      "min": [
        -0.99990570545196533,
        -0.9998590350151062,
        -0.99976891279220581,
        -1
      ],
      "type": "VEC4"
    },
    {
      "bufferView": 2,
      "byteOffset": 1082256,
      "componentType": 5126,
      "count": 24190,
      "max": [
        1,
        1,
        1
      ],
      "min": [
        1,
        1,
        1
      ],
      "type": "VEC3"
    },
    {
      "bufferView": 0,
      "byteOffset": 296592,
      "componentType": 5125,
      "count": 118605,
      "max": [
        24189
      ],
      "min": [
        0
      ],
      "type": "SCALAR"
    },
    {
      "bufferView": 2,
      "byteOffset": 1372536,
      "componentType": 5126,
      "count": 4374,
      "max": [
        1.5278300046920776,
        6.2901501655578613,
        0.68182998895645142
      ],
      "min": [
        -2.0693700313568115,
        1.506119966506958,
        -1.4489500522613525
      ],
      "type": "VEC3"
    },
    {
      "bufferView": 2,
      "byteOffset": 1425024,
      "componentType": 5126,
      "count": 4374,
      "max": [
        0.99882560968399048,
        0.99923938512802124,
        0.99990648031234741
      ],
      "min": [
        -0.99883770942687988,
        -0.99918133020401001,
        -0.99951809644699097
      ],
      "type": "VEC3"
    },
    {
      "bufferView": 3,
      "byteOffset": 610016,
      "componentType": 5126,
      "count": 4374,
      "max": [
        0.99883228540420532,
        0.99744880199432373,
        0.99563813209533691,
        1
      ],
      "min": [
        -0.99985575675964355,
        -0.92927902936935425,
        -0.99902105331420898,
        1
      ],
      "type": "VEC4"
    },
    {
      "bufferView": 2,
      "byteOffset": 1477512,
      "componentType": 5126,
      "count": 4374,
      "max": [
        1,
        1,
        1
      ],
      "min": [
        1,
        1,
        1
      ],
      "type": "VEC3"
    },
    {
      "bufferView": 1,
      "byteOffset": 111488,
      "componentType": 5126,
      "count": 4374,
      "max": [
        1.9899300336837769,
        0.99291998147964478
      ],
      "min": [
        0.0070799998939037323,
        0.0070799998939037323
      ],
      "type": "VEC2"
    },
    {
      "bufferView": 0,
      "byteOffset": 771012,
      "componentType": 5125,
      "count": 20436,
      "max": [
        4373
      ],
      "min": [
        0
      ],
      "type": "SCALAR"
    },
    {
      "bufferView": 2,
      "byteOffset": 1530000,
      "componentType": 5126,
      "count": 5862,
      "max": [
        0.90272998809814453,
        4.115570068359375,
        2.2539200782775879
      ],
      "min": [
        -0.6028900146484375,
        3.0230600833892822,
        -0.23614999651908875
      ],
      "type": "VEC3"
    },
    {
      "bufferView": 2,
      "byteOffset": 1600344,
      "componentType": 5126,
      "count": 5862,
      "max": [
        0.99842822551727295,
        0.99992775917053223,
        0.99981456995010376
      ],
      "min": [
        -0.99940657615661621,
        -0.99984359741210938,
        -0.99948954582214355
      ],
      "type": "VEC3"
    },
    {
      "bufferView": 3,
      "byteOffset": 680000,
      "componentType": 5126,
      "count": 5862,
      "max": [
        0.99987703561782837,
        0.99956017732620239,
        0.99930399656295776,
        1
      ],
      "min": [
        -0.99990957975387573,
        -0.99932628870010376,
        -0.99671918153762817,
        -1
      ],
      "type": "VEC4"
    },
    {
      "bufferView": 2,
      "byteOffset": 1670688,
      "componentType": 5126,
      "count": 5862,
      "max": [
        1,
        1,
        1
      ],
      "min": [
        1,
        1,
        1
      ],
      "type": "VEC3"
    },
    {
      "bufferView": 1,
      "byteOffset": 146480,
      "componentType": 5126,
      "count": 5862,
      "max": [
        0.99282002449035645,
        0.98420000076293945
      ],
      "min": [
        0.0048799999058246613,
        0.0075300000607967377
      ],
      "type": "VEC2"
    },
    {
      "bufferView": 0,
      "byteOffset": 852756,
      "componentType": 5125,
      "count": 26148,
      "max": [
        5861
      ],
      "min": [
        0
      ],
      "type": "SCALAR"
    },
    {
      "bufferView": 2,
      "byteOffset": 1741032,
      "componentType": 5126,
      "count": 1399,
      "max": [
        0.9361799955368042,
        6.019859790802002,
        1.6427700519561768
      ],
      "min": [
        -0.24147999286651611,
        4.7382898330688477,
        0.31839999556541443
      ],
      "type": "VEC3"
    },
    {
      "bufferView": 2,
      "byteOffset": 1757820,
      "componentType": 5126,
      "count": 1399,
      "max": [
        0.99760329723358154,
        0.9980926513671875,
        0.99949586391448975
      ],
      "min": [
        -0.99997121095657349,
        -0.99453026056289673,
        -0.99483799934387207
      ],
      "type": "VEC3"
    },
    {
      "bufferView": 3,
      "byteOffset": 773792,
      "componentType": 5126,
      "count": 1399,
      "max": [
        0.99924856424331665,
        0.99998623132705688,
        0.98332875967025757,
        1
      ],
      "min": [
        -0.99933946132659912,
        -0.98040527105331421,
        -0.94695252180099487,
        -1
      ],
      "type": "VEC4"
    },
    {
      "bufferView": 2,
      "byteOffset": 1774608,
      "componentType": 5126,
      "count": 1399,
      "max": [
        1,
        1,
        1
      ],
      "min": [
        1,
        1,
        1
      ],
      "type": "VEC3"
    },
    {
      "bufferView": 1,
      "byteOffset": 193376,
      "componentType": 5126,
      "count": 1399,
      "max": [
        0.98948997259140015,
        0.9904099702835083
      ],
      "min": [
        0.0095899999141693115,
        0.0095899999141693115
      ],
      "type": "VEC2"
    },
    {
      "bufferView": 0,
      "byteOffset": 957348,
      "componentType": 5125,
      "count": 6165,
      "max": [
        1398
      ],
      "min": [
        0
      ],
      "type": "SCALAR"
    },
    {
      "bufferView": 2,
      "byteOffset": 1791396,
      "componentType": 5126,
      "count": 242,
      "max": [
        0.71502000093460083,
        5.3420300483703613,
        1.4068299531936646
      ],
      "min": [
        0.047100000083446503,
        5.0549001693725586,
        1.1921099424362183
      ],
      "type": "VEC3"
    },
    {
      "bufferView": 2,
      "byteOffset": 1794300,
      "componentType": 5126,
      "count": 242,
      "max": [
        0.96019572019577026,
        0.45082709193229675,
        0.99855655431747437
      ],
      "min": [
        -0.76886707544326782,
        -0.67185592651367188,
        0.27284732460975647
      ],
      "type": "VEC3"
    },
    {
      "bufferView": 3,
      "byteOffset": 796176,
      "componentType": 5126,
      "count": 242,
      "max": [
        0.99554800987243652,
        0.044469490647315979,
        0.76793068647384644,
        1
      ],
      "min": [
        0.27291899919509888,
        -0.24723215401172638,
        -0.96201062202453613,
        1
      ],
      "type": "VEC4"
    },
    {
      "bufferView": 2,
      "byteOffset": 1797204,
      "componentType": 5126,
      "count": 242,
      "max": [
        1,
        1,
        1
      ],
      "min": [
        1,
        1,
        1
      ],
      "type": "VEC3"
    },
    {
      "bufferView": 1,
      "byteOffset": 204568,
      "componentType": 5126,
      "count": 242,
      "max": [
        1.0475300550460815,
        0.9461899995803833
      ],
      "min": [
        0.015960000455379486,
        0.097699999809265137
      ],
      "type": "VEC2"
    },
    {
      "bufferView": 0,
      "byteOffset": 982008,
      "componentType": 5125,
      "count": 1296,
      "max": [
        241
      ],
      "min": [
        0
      ],
      "type": "SCALAR"
    }
  ],
  "asset": {
    "extras": {
      "author": "murilo.kleine (https://sketchfab.com/murilo.kleine)",
      "license": "CC-BY-NC-SA-4.0 (http://creativecommons.org/licenses/by-nc-sa/4.0/)",
      "source": "https://sketchfab.com/models/b45c4dcd855d4e5f981bcd46d2d8cd1f",
      "title": "Toon Shader Tutorial Files"
    },
    "generator": "Sketchfab-3.18.7",
    "version": "2.0"
  },
  "bufferViews": [
    {
      "buffer": 0,
      "byteLength": 987192,
      "byteOffset": 0,
      "name": "floatBufferViews",
      "target": 34963
    },
    {
      "buffer": 0,
      "byteLength": 206504,
      "byteOffset": 987192,
      "byteStride": 8,
      "name": "floatBufferViews",
      "target": 34962
    },
    {
      "buffer": 0,
      "byteLength": 1800108,
      "byteOffset": 1193696,
      "byteStride": 12,
      "name": "floatBufferViews",
      "target": 34962
    },
    {
      "buffer": 0,
      "byteLength": 800048,
      "byteOffset": 2993804,
      "byteStride": 16,
      "name": "floatBufferViews",
      "target": 34962
    }
  ],
  "buffers": [
    {
      "byteLength": 3793852,
      "uri": "scene.bin"
    }
  ],
  "images": [
    {
      "uri": "textures/scissors_baseColor.png"
    },
    {
      "uri": "textures/scissors_emissive.png"
    },
    {
      "uri": "textures/belt_baseColor.png"
    },
    {
      "uri": "textures/belt_emissive.png"
    },
    {
      "uri": "textures/eyes_baseColor.png"
    },
    {
      "uri": "textures/eyes_emissive.png"
    },
    {
      "uri": "textures/hair_baseColor.png"
    },
    {
      "uri": "textures/hair_emissive.png"
    },
    {
      "uri": "textures/body_baseColor.png"
    },
    {
      "uri": "textures/body_emissive.png"
    }
  ],
  "materials": [
    {
      "doubleSided": true,
      "emissiveFactor": [
        1,
        1,
        1
      ],
      "emissiveTexture": {
        "index": 9,
        "texCoord": 0
      },
      "name": "body",
      "pbrMetallicRoughness": {
        "baseColorFactor": [
          1,
          1,
          1,
          1
        ],
        "baseColorTexture": {
          "index": 8,
          "texCoord": 0
        },
        "metallicFactor": 1,
        "roughnessFactor": 0
      }
    },
    {
      "doubleSided": false,
      "emissiveFactor": [
        0,
        0,
        0
      ],
      "name": "outline",
      "pbrMetallicRoughness": {
        "baseColorFactor": [
          0,
          0,
          0,
          1
        ],
        "metallicFactor": 0,
        "roughnessFactor": 1
      }
    },
    {
      "doubleSided": true,
      "emissiveFactor": [
        0.74885670729999998,
        0.74885670729999998,
        0.74885670729999998
      ],
      "emissiveTexture": {
        "index": 1,
        "texCoord": 0
      },
      "name": "scissors",
      "pbrMetallicRoughness": {
        "baseColorFactor": [
          0.93464176830000001,
          0.93464176830000001,
          0.93464176830000001,
          1
        ],
        "baseColorTexture": {
          "index": 0,
          "texCoord": 0
        },
        "metallicFactor": 1,
        "roughnessFactor": 0
      }
    },
    {
      "doubleSided": true,
      "emissiveFactor": [
        1,
        1,
        1
      ],
      "emissiveTexture": {
        "index": 3,
        "texCoord": 0
      },
      "name": "belt",
      "pbrMetallicRoughness": {
        "baseColorFactor": [
          1,
          1,
          1,
          1
        ],
        "baseColorTexture": {
          "index": 2,
          "texCoord": 0
        },
        "metallicFactor": 1,
        "roughnessFactor": 0
      }
    },
    {
      "doubleSided": true,
      "emissiveFactor": [
        1,
        1,
        1
      ],
      "emissiveTexture": {
        "index": 7,
        "texCoord": 0
      },
      "name": "hair",
      "pbrMetallicRoughness": {
        "baseColorFactor": [
          1,
          1,
          1,
          1
        ],
        "baseColorTexture": {
          "index": 6,
          "texCoord": 0
        },
        "metallicFactor": 1,
        "roughnessFactor": 0
      }
    },
    {
      "doubleSided": true,
      "emissiveFactor": [
        1,
        1,
        1
      ],
      "emissiveTexture": {
        "index": 5,
        "texCoord": 0
      },
      "name": "eyes",
      "pbrMetallicRoughness": {
        "baseColorFactor": [
          1,
          1,
          1,
          1
        ],
        "baseColorTexture": {
          "index": 4,
          "texCoord": 0
        },
        "metallicFactor": 1,
        "roughnessFactor": 0
      }
    }
  ],
  "meshes": [
    {
      "name": "the kid.005_0",
      "primitives": [
        {
          "attributes": {
            "COLOR_0": 3,
            "NORMAL": 1,
            "POSITION": 0,
            "TANGENT": 2,
            "TEXCOORD_0": 4
          },
          "indices": 5,
          "material": 0,
          "mode": 4
        }
      ]
    },
    {
      "name": "the kid.005_1",
      "primitives": [
        {
          "attributes": {
            "COLOR_0": 9,
            "NORMAL": 7,
            "POSITION": 6,
            "TANGENT": 8
          },
          "indices": 10,
          "material": 1,
          "mode": 4
        }
      ]
    },
    {
      "name": "the kid.005_2",
      "primitives": [
        {
          "attributes": {
            "COLOR_0": 14,
            "NORMAL": 12,
            "POSITION": 11,
            "TANGENT": 13,
            "TEXCOORD_0": 15
          },
          "indices": 16,
          "material": 2,
          "mode": 4
        }
      ]
    },
    {
      "name": "the kid.005_3",
      "primitives": [
        {
          "attributes": {
            "COLOR_0": 20,
            "NORMAL": 18,
            "POSITION": 17,
            "TANGENT": 19,
            "TEXCOORD_0": 21
          },
          "indices": 22,
          "material": 3,
          "mode": 4
        }
      ]
    },
    {
      "name": "the kid.005_4",
      "primitives": [
        {
          "attributes": {
            "COLOR_0": 26,
            "NORMAL": 24,
            "POSITION": 23,
            "TANGENT": 25,
            "TEXCOORD_0": 27
          },
          "indices": 28,
          "material": 4,
          "mode": 4
        }
      ]
    },
    {
      "name": "the kid.005_5",
      "primitives": [
        {
          "attributes": {
            "COLOR_0": 32,
            "NORMAL": 30,
            "POSITION": 29,
            "TANGENT": 31,
            "TEXCOORD_0": 33
          },
          "indices": 34,
          "material": 5,
          "mode": 4
        }
      ]
    }
  ],
  "nodes": [
    {
      "children": [
        1
      ],
      "name": "RootNode (gltf orientation matrix)",
      "rotation": [
        -0.70710678118654746,
        -0,
        -0,
        0.70710678118654757
      ]
    },
    {
      "children": [
        2
      ],
      "name": "RootNode (model correction matrix)"
    },
    {
      "children": [
        3
      ],
      "name": "Root"
    },
    {
      "children": [
        4,
        5,
        6,
        7,
        8,
        9
      ],
      "matrix": [
        1,
        0,
        0,
        0,
        0,
        -0,
        1,
        0,
        0,
        -1,
        -0,
        0,
        0,
        0,
        0,
        1
      ],
      "name": "the kid.005"
    },
    {
      "mesh": 0,
      "name": "the kid.005_0"
    },
    {
      "mesh": 1,
      "name": "the kid.005_1"
    },
    {
      "mesh": 2,
      "name": "the kid.005_2"
    },
    {
      "mesh": 3,
      "name": "the kid.005_3"
    },
    {
      "mesh": 4,
      "name": "the kid.005_4"
    },
    {
      "mesh": 5,
      "name": "the kid.005_5"
    }
  ],
  "samplers": [
    {
      "magFilter": 9729,
      "minFilter": 9987,
      "wrapS": 10497,
      "wrapT": 10497
    }
  ],
  "scene": 0,
  "scenes": [
    {
      "name": "OSG_Scene",
      "nodes": [
        0
      ]
    }
  ],
  "textures": [
    {
      "sampler": 0,
      "source": 0
    },
    {
      "sampler": 0,
      "source": 1
    },
    {
      "sampler": 0,
      "source": 2
    },
    {
      "sampler": 0,
      "source": 3
    },
    {
      "sampler": 0,
      "source": 4
    },
    {
      "sampler": 0,
      "source": 5
    },
    {
      "sampler": 0,
      "source": 6
    },
    {
      "sampler": 0,
      "source": 7
    },
    {
      "sampler": 0,
      "source": 8
    },
    {
      "sampler": 0,
      "source": 9
    }
  ]
}

